<svg width="20" height="19" viewBox="0 0 20 19" fill="none" xmlns="http://www.w3.org/2000/svg">
<path d="M16.5 11C16.2239 11 16 10.7761 16 10.5V2.5C16 2.22386 16.2239 2 16.5 2H19.5C19.7761 2 20 2.22386 20 2.5V10.5C20 10.7761 19.7761 11 19.5 11H16.5ZM13 0C13.5304 0 14.0391 0.210714 14.4142 0.585786C14.7893 0.960859 15 1.46957 15 2V11C15 11.55 14.78 12.05 14.41 12.41L8.18355 18.6459C7.98833 18.8414 7.67155 18.8415 7.47618 18.6462L6.77 17.94C6.5 17.67 6.33 17.3 6.33 16.88L6.36 16.57L7.18491 12.6018C7.24944 12.2913 7.01244 12 6.69537 12H2C0.89 12 0 11.1 0 10V8C0 7.74 0.05 7.5 0.14 7.27L3.16 1.22C3.46 0.5 4.17 0 5 0H13ZM13 2.5C13 2.22386 12.7761 2 12.5 2H5.2804C5.09029 2 4.91663 2.10781 4.8323 2.27819L2.05189 7.89516C2.01776 7.96412 2 8.04003 2 8.11698V9.5C2 9.77614 2.22386 10 2.5 10H9.16264C9.4806 10 9.71779 10.2929 9.65173 10.6039L9.00062 13.6693C8.89719 14.1562 9.49127 14.4787 9.84326 14.1267L12.8536 11.1164C12.9473 11.0227 13 10.8955 13 10.7629V2.5Z" fill="#E0E0E0"/>
</svg>
